<svg width="51" height="17" viewBox="0 0 51 17" fill="none" xmlns="http://www.w3.org/2000/svg">
<path fill-rule="evenodd" clip-rule="evenodd" d="M35.8137 10.5839H48.5839C48.6335 10.5839 48.6832 10.5839 48.7329 10.5342H48.7826C48.8323 10.5342 48.8323 10.4845 48.8323 10.4845C48.8323 10.4845 48.8323 10.4348 48.882 10.4348L48.9317 10.3851V10.3354C48.9317 10.3354 48.9317 10.3354 48.9317 10.2857L50.4224 3.03106V2.98137C50.4224 2.98137 50.4224 2.98137 50.4224 2.93168C50.4224 2.93168 50.4224 2.93168 50.4224 2.88199C50.4224 2.8323 50.4224 2.8323 50.4224 2.8323C50.4224 2.8323 50.4224 2.78261 50.3727 2.78261C50.3727 2.78261 50.3727 2.73292 50.323 2.73292L50.2733 2.68323L50.2236 2.63354C50.2236 2.63354 50.1739 2.63354 50.1739 2.58385C50.1739 2.58385 50.1739 2.58385 50.1242 2.58385H50.0745C50.0745 2.58385 50.0745 2.58385 50.0248 2.58385H45.8012H44.7578H34.5714L34.0745 0.298137C34.0745 0.298137 34.0745 0.298137 34.0745 0.248447C34.0745 0.198758 34.0745 0.198758 34.0248 0.198758C34.0248 0.198758 34.0248 0.149068 33.9752 0.149068L33.9255 0.0993789L33.8758 0.0496894C33.8758 0.0496894 33.8261 0.0496894 33.8261 0C33.7764 0 33.7764 0 33.7267 0C33.7267 0 33.7267 0 33.677 0H30.3975C30.1988 0 30 0.149068 30 0.397516C30 0.645963 30.1491 0.795031 30.3975 0.795031H33.3789L35.3168 9.93789C34.472 10.1366 33.8261 10.882 33.8261 11.8261C33.8261 12.8696 34.6708 13.764 35.764 13.764H36.7081C36.559 13.9627 36.5093 14.2112 36.5093 14.5093C36.5093 15.354 37.1553 16 38 16C38.8447 16 39.4907 15.354 39.4907 14.5093C39.4907 14.2609 39.3913 13.9627 39.2919 13.764H45.0062C44.8571 13.9627 44.8075 14.2112 44.8075 14.5093C44.8075 15.354 45.4534 16 46.2981 16C47.1429 16 47.7888 15.354 47.7888 14.5093C47.7888 14.2609 47.6894 13.9627 47.5901 13.764H48.5342C48.7329 13.764 48.9317 13.6149 48.9317 13.3665C48.9317 13.118 48.7826 12.9689 48.5342 12.9689H35.8137C35.1677 12.9689 34.6211 12.4224 34.6211 11.7764C34.6211 11.1304 35.1677 10.5839 35.8137 10.5839ZM44.8075 3.32919H45.8509H49.6273L48.2857 9.83851H36.1118L34.7205 3.32919H44.8075ZM38.795 14.4596C38.795 14.8571 38.4472 15.205 38.0497 15.205C37.6522 15.205 37.3043 14.8571 37.3043 14.4596C37.3043 14.0621 37.6522 13.7143 38.0497 13.7143C38.4472 13.7143 38.795 14.0621 38.795 14.4596ZM47.0932 14.4596C47.0932 14.8571 46.7453 15.205 46.3478 15.205C45.9503 15.205 45.6025 14.8571 45.6025 14.4596C45.6025 14.0621 45.9503 13.7143 46.3478 13.7143C46.7453 13.7143 47.0932 14.0621 47.0932 14.4596Z" fill="url(#paint0_radial)"/>
<path d="M6.36 10.69H7.305C7.195 9.8 6.85 9.135 6.27 8.695C5.7 8.255 5 8.035 4.17 8.035C3.58 8.035 3.055 8.145 2.595 8.365C2.145 8.585 1.765 8.88 1.455 9.25C1.145 9.62 0.91 10.055 0.75 10.555C0.59 11.045 0.51 11.57 0.51 12.13C0.51 12.69 0.59 13.22 0.75 13.72C0.91 14.21 1.145 14.64 1.455 15.01C1.765 15.38 2.145 15.675 2.595 15.895C3.055 16.105 3.58 16.21 4.17 16.21C5.05 16.21 5.77 15.95 6.33 15.43C6.89 14.9 7.235 14.165 7.365 13.225H6.42C6.39 13.545 6.31 13.84 6.18 14.11C6.05 14.38 5.885 14.615 5.685 14.815C5.485 15.005 5.255 15.155 4.995 15.265C4.735 15.375 4.46 15.43 4.17 15.43C3.72 15.43 3.325 15.335 2.985 15.145C2.645 14.955 2.36 14.705 2.13 14.395C1.91 14.085 1.74 13.735 1.62 13.345C1.51 12.945 1.455 12.54 1.455 12.13C1.455 11.72 1.51 11.32 1.62 10.93C1.74 10.53 1.91 10.175 2.13 9.865C2.36 9.555 2.645 9.305 2.985 9.115C3.325 8.925 3.72 8.83 4.17 8.83C4.8 8.83 5.29 8.995 5.64 9.325C5.99 9.655 6.23 10.11 6.36 10.69ZM8.58832 10.63H9.53332C9.55332 10 9.75332 9.545 10.1333 9.265C10.5133 8.975 11.0033 8.83 11.6033 8.83C11.8833 8.83 12.1433 8.855 12.3833 8.905C12.6333 8.945 12.8483 9.025 13.0283 9.145C13.2183 9.265 13.3633 9.43 13.4633 9.64C13.5733 9.84 13.6283 10.1 13.6283 10.42C13.6283 10.63 13.5983 10.8 13.5383 10.93C13.4883 11.06 13.4133 11.165 13.3133 11.245C13.2133 11.315 13.0883 11.365 12.9383 11.395C12.7883 11.425 12.6133 11.45 12.4133 11.47C11.9033 11.53 11.3983 11.595 10.8983 11.665C10.4083 11.725 9.96332 11.835 9.56332 11.995C9.17332 12.155 8.85832 12.39 8.61832 12.7C8.37832 13 8.25832 13.42 8.25832 13.96C8.25832 14.35 8.32332 14.69 8.45332 14.98C8.59332 15.26 8.77832 15.495 9.00832 15.685C9.24832 15.865 9.52332 15.995 9.83332 16.075C10.1533 16.165 10.4933 16.21 10.8533 16.21C11.2333 16.21 11.5583 16.175 11.8283 16.105C12.1083 16.035 12.3533 15.935 12.5633 15.805C12.7833 15.675 12.9783 15.515 13.1483 15.325C13.3283 15.125 13.5033 14.9 13.6733 14.65H13.7033C13.7033 14.85 13.7133 15.035 13.7333 15.205C13.7633 15.365 13.8183 15.505 13.8983 15.625C13.9783 15.745 14.0883 15.84 14.2283 15.91C14.3783 15.97 14.5733 16 14.8133 16C14.9433 16 15.0483 15.995 15.1283 15.985C15.2183 15.975 15.3183 15.96 15.4283 15.94V15.145C15.3383 15.185 15.2383 15.205 15.1283 15.205C14.7583 15.205 14.5733 15.015 14.5733 14.635V10.525C14.5733 10.005 14.4883 9.585 14.3183 9.265C14.1483 8.935 13.9283 8.68 13.6583 8.5C13.3883 8.32 13.0833 8.2 12.7433 8.14C12.4033 8.07 12.0633 8.035 11.7233 8.035C11.2733 8.035 10.8633 8.085 10.4933 8.185C10.1233 8.285 9.79832 8.44 9.51832 8.65C9.24832 8.86 9.03332 9.13 8.87332 9.46C8.71332 9.79 8.61832 10.18 8.58832 10.63ZM13.6283 11.77V13C13.6283 13.38 13.5533 13.72 13.4033 14.02C13.2633 14.32 13.0683 14.575 12.8183 14.785C12.5783 14.995 12.2933 15.155 11.9633 15.265C11.6333 15.375 11.2883 15.43 10.9283 15.43C10.7083 15.43 10.4933 15.395 10.2833 15.325C10.0733 15.255 9.88832 15.155 9.72832 15.025C9.56832 14.885 9.43832 14.725 9.33832 14.545C9.24832 14.355 9.20332 14.14 9.20332 13.9C9.20332 13.52 9.31332 13.23 9.53332 13.03C9.76332 12.82 10.0533 12.66 10.4033 12.55C10.7533 12.44 11.1383 12.36 11.5583 12.31C11.9883 12.25 12.4033 12.185 12.8033 12.115C12.9333 12.095 13.0833 12.06 13.2533 12.01C13.4233 11.96 13.5383 11.88 13.5983 11.77H13.6283ZM16.4566 8.26V16H17.4016V11.875C17.4016 11.465 17.4716 11.09 17.6116 10.75C17.7516 10.4 17.9466 10.1 18.1966 9.85C18.4566 9.6 18.7616 9.41 19.1116 9.28C19.4616 9.14 19.8516 9.08 20.2816 9.1V8.155C19.5816 8.125 18.9766 8.28 18.4666 8.62C17.9666 8.96 17.5966 9.445 17.3566 10.075H17.3266V8.26H16.4566ZM22.6881 8.26V5.935H21.7431V8.26H20.3931V9.055H21.7431V14.35C21.7331 15.01 21.8531 15.465 22.1031 15.715C22.3531 15.955 22.7931 16.075 23.4231 16.075C23.5631 16.075 23.7031 16.07 23.8431 16.06C23.9831 16.05 24.1231 16.045 24.2631 16.045V15.25C23.9931 15.28 23.7231 15.295 23.4531 15.295C23.1131 15.275 22.8981 15.18 22.8081 15.01C22.7281 14.83 22.6881 14.585 22.6881 14.275V9.055H24.2631V8.26H22.6881Z" fill="#C90EA5"/>
<defs>
<radialGradient id="paint0_radial" cx="0" cy="0" r="1" gradientUnits="userSpaceOnUse" gradientTransform="translate(46.3359 12.248) rotate(-143.645) scale(14.6092 7.55667)">
<stop stop-color="#7E00E8"/>
<stop offset="0.401611" stop-color="#FF1876"/>
<stop offset="1" stop-color="#BB0CB2"/>
</radialGradient>
</defs>
</svg>
